<?xml version="1.0" standalone="no"?><!DOCTYPE svg PUBLIC "-//W3C//DTD SVG 20010904//EN" "http://www.w3.org/TR/2001/REC-SVG-20010904/DTD/svg10.dtd"><svg version="1.0" xmlns="http://www.w3.org/2000/svg" width="1024.000000" height="1024.000000" viewBox="0 0 1024.000000 1024.000000" preserveAspectRatio="xMidYMid meet"><g transform="translate(0.000000,1024.000000) scale(0.100000,-0.100000)" fill="#000000" stroke="none"><path d="M5089 8462 c-64 -44 -77 -82 -149 -437 -54 -261 -75 -322 -131 -381 -45 -46 -96 -67 -299 -124 -279 -77 -323 -92 -347 -117 -42 -41 -21 -99 45 -124 15 -6 134 -37 265 -70 262 -66 307 -82 358 -127 67 -58 75 -85 163 -535 37 -190 80 -251 153 -214 45 24 68 87 107 292 61 319 68 344 100 398 53 88 88 105 377 177 331 82 359 94 359 151 0 57 -38 76 -305 150 -269 75 -304 90 -358 148 -67 72 -79 105 -132 366 -42 207 -84 366 -106 402 -12 18 -33 40 -48 48 -25 12 -31 12 -52 -3z m63 -29 c39 -45 50 -80 118 -398 27 -126 56 -249 64 -273 33 -94 105 -169 195 -202 25 -10 138 -43 251 -75 239 -66 285 -87 285 -129 0 -19 -8 -35 -25 -47 -14 -10 -143 -48 -290 -85 -277 -69 -325 -88 -379 -149 -53 -60 -68 -105 -106 -301 -61 -319 -74 -372 -102 -404 -31 -37 -65 -39 -92 -4 -28 36 -36 63 -85 314 -24 124 -51 251 -61 282 -20 71 -90 152 -155 180 -25 11 -157 49 -294 84 -137 35 -263 72 -280 82 -20 12 -32 27 -34 45 -4 32 34 59 113 81 290 81 425 120 452 132 52 21 134 104 159 160 12 28 48 174 79 325 31 151 66 296 77 322 31 71 78 97 110 60z"/><path d="M6369 6475 c-63 -20 -127 -80 -234 -220 -76 -99 -182 -236 -574 -739 -25 -32 -57 -73 -71 -91 -14 -18 -71 -91 -127 -162 -160 -202 -295 -373 -351 -446 l-51 -67 -83 98 c-140 163 -432 511 -703 837 -142 171 -272 325 -289 343 -51 55 -120 85 -196 84 -121 0 -163 -32 -326 -243 -60 -78 -174 -223 -253 -323 -322 -406 -720 -910 -840 -1066 -20 -26 -138 -177 -262 -336 -125 -159 -246 -314 -270 -346 -136 -175 -392 -500 -542 -686 -64 -81 -127 -167 -139 -192 -29 -59 -35 -152 -14 -203 23 -52 83 -117 131 -139 38 -17 39 -18 10 -16 -16 2 -36 8 -43 15 -6 6 -23 10 -37 7 -16 -3 -25 0 -25 8 0 7 -10 2 -21 -12 -11 -14 -19 -18 -16 -10 2 8 -1 20 -7 27 -6 7 -17 19 -24 28 -7 8 -18 15 -25 15 -6 0 -2 -7 10 -15 13 -9 20 -22 17 -30 -4 -9 0 -15 7 -15 11 0 11 -2 -1 -9 -8 -6 -18 -7 -22 -5 -4 3 -8 0 -8 -5 0 -6 6 -11 14 -11 17 0 56 -47 56 -67 0 -8 -4 -12 -9 -9 -5 3 -12 -1 -15 -10 -9 -24 -7 -31 4 -14 6 10 10 11 10 3 0 -7 5 -13 11 -13 5 0 8 4 5 8 -2 4 -1 14 5 22 7 13 9 13 9 0 0 -13 2 -13 9 -1 7 12 13 12 24 3 7 -7 17 -9 20 -5 4 3 7 1 7 -6 0 -8 -7 -10 -19 -6 -21 6 -55 -21 -45 -36 3 -6 14 0 25 12 10 12 19 17 19 11 0 -6 7 -9 16 -5 10 4 17 -2 21 -17 4 -16 8 -18 14 -8 7 10 9 10 9 1 0 -7 9 -13 20 -13 11 0 20 -6 20 -12 0 -8 5 -6 10 4 6 10 18 14 30 11 12 -3 20 0 20 8 0 7 2 10 5 7 3 -3 1 -16 -4 -30 -7 -20 -6 -24 10 -25 11 -1 17 2 14 8 -7 10 26 25 73 32 19 3 32 1 32 -5 0 -7 5 -7 13 1 10 8 17 7 25 -1 8 -8 16 -8 29 3 16 13 17 12 5 -3 -8 -10 -9 -17 -3 -20 7 -2 7 -8 1 -18 -8 -13 -10 -12 -10 3 0 10 -4 15 -10 12 -5 -3 -10 -1 -10 6 0 8 -3 9 -13 0 -8 -6 -17 -8 -20 -4 -4 3 -7 1 -7 -6 0 -7 -5 -9 -12 -5 -7 5 -8 3 -4 -5 5 -7 14 -10 22 -7 8 3 14 1 14 -4 0 -6 5 -10 11 -10 5 0 7 5 4 10 -3 6 -1 10 4 10 6 0 11 -4 11 -10 0 -17 27 -11 35 8 6 16 7 16 16 0 6 -10 18 -18 27 -17 14 0 13 2 -3 9 -11 5 -16 9 -11 9 6 1 2 7 -8 14 -17 13 -17 14 -1 30 19 19 31 21 40 7 3 -5 -1 -10 -9 -10 -9 0 -16 -4 -16 -10 0 -14 11 -12 30 5 15 14 18 14 23 1 4 -9 -3 -16 -21 -21 -24 -6 -25 -7 -8 -17 14 -8 21 -7 27 3 7 11 9 11 9 1 0 -8 5 -10 12 -6 22 14 79 11 74 -3 -6 -15 -2 -16 22 -4 9 5 25 12 35 15 10 3 16 10 13 15 -8 13 27 40 51 38 14 -1 20 -7 18 -19 -2 -10 1 -20 6 -23 5 -4 7 -10 4 -15 -3 -5 0 -12 6 -16 8 -4 9 -3 5 4 -4 7 -3 12 3 12 5 0 12 -6 14 -12 4 -9 6 -9 6 1 1 11 4 10 14 -3 14 -19 57 -15 57 5 0 6 -5 7 -10 4 -6 -3 -10 4 -10 17 l0 22 17 -24 c23 -35 33 -39 59 -30 12 5 25 6 30 2 4 -4 4 -1 0 5 -4 7 -20 11 -36 9 -17 -2 -30 -2 -30 -1 0 1 9 12 20 25 11 12 17 27 13 33 -3 5 -1 7 5 4 5 -4 8 -17 6 -30 -4 -20 -3 -20 7 3 7 15 13 20 16 13 3 -8 15 -11 31 -8 21 4 23 3 8 -3 -14 -6 -16 -11 -8 -16 16 -9 5 -29 -11 -20 -7 4 -8 3 -4 -1 12 -13 37 -15 34 -2 -3 14 20 16 52 5 21 -8 22 -7 11 7 -11 13 -10 14 4 9 10 -4 16 -1 16 9 0 10 -7 13 -19 10 -11 -3 -28 0 -38 6 -14 8 -14 11 -3 11 13 0 13 1 0 10 -9 6 -10 10 -3 10 6 0 18 -7 27 -15 19 -19 30 -19 22 1 -4 10 -2 13 7 7 6 -4 20 -6 31 -4 11 1 16 -2 12 -8 -4 -6 -2 -11 3 -11 6 0 11 8 12 18 0 9 3 12 5 6 3 -6 15 -9 28 -7 36 7 69 -14 64 -41 -4 -18 0 -22 19 -22 20 0 21 2 8 16 -20 22 -19 36 1 16 8 -9 20 -14 25 -10 5 3 8 0 7 -7 -2 -6 4 -14 12 -16 10 -3 11 -2 3 4 -8 5 -9 14 -3 23 7 12 11 10 19 -10 5 -14 10 -19 10 -12 1 7 6 10 11 7 17 -11 31 5 21 24 -5 9 -7 21 -3 27 12 15 32 15 38 -1 3 -8 10 -12 15 -9 5 3 6 -2 3 -10 -3 -9 -10 -16 -16 -16 -5 0 -6 6 -3 13 4 6 -1 3 -9 -7 -21 -26 -20 -35 4 -29 11 3 28 -1 37 -8 12 -10 14 -10 9 -2 -5 9 0 13 13 13 12 0 21 5 21 11 0 6 -9 8 -21 4 -17 -6 -20 -3 -17 15 2 18 11 23 36 25 21 2 31 -1 29 -9 -2 -6 -13 -10 -23 -8 -19 3 -19 3 0 -11 12 -9 17 -20 13 -30 -5 -14 2 -16 52 -14 33 1 57 5 55 9 -2 4 0 9 5 12 5 4 12 2 16 -3 6 -10 46 -11 44 -1 -3 22 -18 44 -33 46 -10 1 -16 0 -13 -3 12 -11 -34 -41 -72 -48 -44 -7 -47 -4 -31 45 8 25 8 25 9 2 1 -13 5 -20 11 -17 6 4 7 11 4 17 -5 7 -2 8 5 4 7 -5 10 -14 8 -20 -3 -7 1 -13 8 -13 10 0 11 5 4 18 -5 10 -5 20 0 23 5 3 11 -1 15 -9 7 -19 26 -19 26 0 0 11 10 13 45 10 25 -2 45 0 45 4 0 4 7 8 15 8 9 0 14 -5 12 -11 -2 -6 -15 -11 -28 -11 -31 1 -36 -30 -8 -45 21 -12 43 -4 34 11 -4 5 6 4 22 -2 40 -16 64 -19 58 -9 -3 5 6 20 20 34 14 14 25 21 25 16 0 -6 5 -10 11 -10 5 0 8 4 5 8 -3 5 13 9 35 9 40 1 48 -5 53 -43 2 -10 8 -20 15 -22 6 -2 10 0 9 5 -2 4 2 8 7 8 5 0 9 -2 8 -5 -1 -3 10 -6 23 -6 13 -1 24 2 24 8 0 5 4 7 9 4 5 -4 7 2 4 12 -3 12 1 19 11 19 9 0 16 -4 16 -9 0 -5 11 -6 25 -2 15 4 25 2 25 -5 0 -6 5 -11 10 -11 21 0 9 19 -17 28 -18 7 -22 11 -10 11 29 2 31 2 47 14 13 11 13 10 1 -6 -13 -16 -13 -20 0 -28 19 -12 49 -11 49 1 0 6 5 10 10 10 6 0 10 -6 10 -14 0 -18 -40 -28 -57 -14 -9 7 -13 7 -13 0 0 -6 6 -13 13 -16 6 -3 0 -3 -15 0 -19 4 -28 2 -28 -7 0 -7 3 -10 6 -6 3 3 17 2 31 -4 16 -6 22 -6 18 1 -3 6 -1 11 4 11 6 1 17 2 24 3 6 1 23 -5 37 -13 24 -15 24 -15 11 2 -8 10 -9 17 -3 15 6 -2 18 6 26 17 l16 20 -6 -20 c-5 -16 -4 -17 4 -5 12 15 6 33 -8 25 -5 -3 -11 -1 -15 5 -6 10 18 18 70 22 25 3 30 0 27 -17 -2 -17 -1 -17 8 -5 7 11 12 12 18 3 4 -7 16 -10 27 -8 11 2 24 4 28 4 5 1 5 6 1 12 -4 8 -9 8 -13 1 -4 -6 -12 -7 -20 -3 -9 6 -7 10 8 14 12 3 23 1 26 -4 3 -4 13 -5 23 -2 14 5 14 3 -3 -17 -11 -13 -15 -20 -8 -17 6 4 13 4 16 0 2 -5 3 -3 1 3 -1 6 6 16 16 22 24 15 48 -9 27 -27 -8 -6 -17 -8 -21 -4 -4 4 -4 0 0 -10 5 -14 9 -15 20 -6 13 11 19 5 14 -16 -1 -5 2 -7 5 -3 4 4 17 3 29 -3 19 -9 19 -9 4 4 -10 8 -14 18 -10 22 4 5 2 5 -5 1 -6 -3 -14 -2 -18 4 -6 10 13 15 48 12 9 -1 17 3 17 9 0 5 -4 8 -9 4 -5 -3 -12 -1 -16 5 -3 5 3 10 13 10 13 0 21 -9 24 -25 3 -14 1 -25 -3 -25 -5 0 -9 -4 -9 -10 0 -5 4 -10 9 -10 11 0 33 59 26 70 -3 4 2 10 10 13 11 5 12 1 5 -19 -13 -33 -13 -34 8 -27 9 3 14 3 10 -2 -10 -11 17 -35 39 -34 16 0 16 1 -2 9 -14 6 -16 9 -5 10 18 3 33 6 40 9 3 2 13 4 23 6 23 4 32 13 24 22 -4 3 -18 1 -31 -5 -20 -9 -25 -8 -30 4 -3 8 -2 12 3 9 5 -3 12 -1 16 5 7 12 55 9 55 -3 0 -4 3 -6 8 -4 4 3 13 -1 19 -9 7 -7 9 -15 4 -19 -5 -3 -11 1 -14 7 -4 10 -7 10 -17 1 -11 -10 -10 -14 3 -19 10 -3 23 -1 31 5 8 6 27 8 46 5 32 -7 32 -7 10 -19 -19 -10 -20 -13 -6 -18 10 -4 15 -3 12 2 -3 5 1 12 10 15 9 3 14 12 11 19 -4 10 5 14 29 14 37 0 46 -19 17 -36 -13 -7 -5 -9 28 -8 25 1 46 7 46 12 0 54 4 65 23 62 11 -2 23 -7 27 -12 5 -4 -2 -5 -14 -2 -25 6 -26 3 -13 -28 5 -11 9 -14 9 -7 1 7 6 10 11 7 7 -5 8 -11 1 -19 -7 -8 -3 -12 15 -14 18 -1 23 2 17 11 -4 6 -8 22 -8 34 -1 22 3 24 43 23 4 0 8 -8 8 -18 1 -9 2 -22 3 -29 2 -19 31 -3 31 16 0 9 -5 22 -12 29 -9 9 -7 12 13 11 13 0 18 -3 12 -6 -10 -3 -9 -11 2 -34 15 -28 15 -29 -7 -30 -20 -1 -20 -2 -4 -6 11 -3 25 2 31 11 8 10 26 15 51 14 21 0 50 2 63 5 13 4 20 3 17 -1 -4 -4 -13 -7 -18 -7 -6 0 -13 -7 -15 -15 -3 -9 -1 -11 4 -5 4 6 13 11 18 11 6 1 25 5 43 9 23 5 32 3 32 -6 0 -7 6 -4 15 7 12 16 14 16 15 3 0 -9 10 -19 23 -23 35 -9 38 -7 26 17 -11 19 -10 20 3 9 16 -13 68 -13 68 0 0 4 7 8 17 8 19 0 9 13 -13 16 -8 1 -18 -4 -21 -12 -3 -8 -10 -14 -15 -14 -6 0 -8 6 -5 13 3 8 -1 14 -9 14 -7 0 -11 -4 -7 -9 3 -6 -10 -2 -28 7 -31 16 -33 16 -45 0 -16 -21 -77 -17 -82 6 -3 19 35 19 47 1 5 -8 11 -5 21 8 15 21 40 27 40 9 0 -5 5 -7 10 -4 6 3 10 1 10 -5 0 -7 6 -8 18 -2 17 9 48 9 87 -1 11 -3 22 -6 25 -7 3 0 -6 -10 -19 -21 -20 -16 -22 -22 -11 -32 10 -9 11 -9 6 0 -4 7 -2 13 3 13 6 0 11 -6 12 -12 1 -7 4 -3 7 10 7 25 24 31 31 11 2 -7 -1 -9 -9 -4 -9 6 -11 4 -6 -4 6 -9 13 -8 27 5 13 12 16 21 9 28 -16 16 -12 26 11 26 18 0 19 -3 9 -15 -10 -12 -9 -16 4 -21 9 -3 16 -12 16 -19 0 -23 20 -27 45 -11 15 10 25 12 25 6 0 -6 5 -8 10 -5 6 3 10 11 10 16 0 6 -4 8 -8 5 -4 -2 -8 3 -8 13 0 11 7 17 21 16 11 -1 23 3 27 9 4 6 11 7 15 2 4 -5 2 -11 -4 -13 -7 -3 -13 -11 -13 -19 0 -9 -5 -12 -10 -9 -6 4 -7 11 -4 17 4 7 2 8 -5 4 -9 -6 -9 -11 0 -22 8 -10 8 -14 0 -14 -6 0 -11 -4 -11 -10 0 -5 7 -10 15 -10 8 0 14 5 12 11 -1 6 10 12 25 13 16 1 24 -3 21 -9 -4 -5 3 -1 15 9 12 11 22 15 22 11 0 -5 5 -4 11 2 6 6 18 9 27 5 13 -5 12 -7 -4 -13 -15 -6 -13 -7 9 -6 16 1 33 7 39 14 17 20 28 15 26 -11 -1 -14 -6 -22 -10 -20 -5 3 -6 9 -3 14 3 4 -6 3 -20 -3 l-24 -12 26 -7 c19 -5 33 -2 47 10 15 13 18 13 12 2 -7 -13 -6 -13 6 0 15 18 51 23 41 6 -4 -8 -2 -8 7 1 15 14 4 34 -15 26 -8 -3 -15 0 -15 6 0 16 52 35 59 22 4 -5 13 -9 21 -9 36 2 60 -3 60 -13 0 -5 -4 -7 -10 -4 -5 3 -10 1 -10 -6 0 -7 -7 -4 -16 7 -13 16 -15 16 -10 2 3 -10 1 -18 -5 -18 -6 0 -7 -4 -4 -10 3 -5 1 -10 -5 -10 -7 0 -9 7 -6 16 4 10 1 14 -6 12 -7 -3 -13 -11 -13 -19 0 -18 35 -25 46 -8 6 10 11 10 25 -2 21 -17 17 -17 37 0 15 12 17 11 18 -10 1 -16 3 -18 6 -7 2 10 10 15 19 11 17 -6 18 1 4 28 -8 15 -7 19 4 19 10 0 13 -6 10 -15 -4 -8 -1 -15 6 -15 6 0 8 -6 4 -13 -4 -6 -4 -9 1 -5 4 4 15 2 23 -5 13 -9 14 -9 8 0 -4 7 -3 13 3 13 5 0 12 10 14 23 4 21 4 21 6 1 1 -21 28 -40 39 -29 3 3 0 5 -6 5 -6 0 -9 7 -5 16 4 10 0 20 -10 26 -10 5 -17 14 -17 21 0 9 2 9 8 0 5 -8 19 -9 45 -4 29 7 37 6 37 -5 0 -8 -6 -14 -12 -13 -25 3 -39 -1 -34 -9 8 -13 68 -2 91 17 18 15 19 15 7 -1 -11 -14 -10 -18 8 -28 11 -6 18 -15 15 -21 -4 -5 -1 -9 4 -9 6 0 11 5 11 10 0 13 27 13 35 0 3 -6 -1 -7 -10 -4 -11 5 -14 2 -9 -10 5 -13 9 -14 20 -5 12 10 12 15 -1 35 -20 31 -20 31 20 26 19 -2 32 -8 29 -14 -3 -5 -12 -7 -20 -4 -17 7 -18 -2 -1 -17 16 -15 41 -21 33 -8 -4 5 -2 12 3 15 5 4 12 2 16 -3 11 -19 36 0 29 23 -6 19 -5 19 14 -4 12 -14 21 -19 22 -12 0 6 -4 12 -8 12 -4 0 -8 9 -9 20 -2 24 15 27 24 5 5 -14 8 -14 30 1 19 12 27 13 33 4 5 -7 10 -8 14 -2 3 5 18 7 32 4 17 -3 25 -1 20 6 -4 6 2 8 14 5 11 -3 23 -9 26 -14 2 -4 16 -3 29 3 29 13 43 5 26 -16 -13 -15 -51 -15 -74 0 -7 5 -5 1 6 -8 10 -10 15 -23 12 -29 -6 -8 -10 -7 -16 2 -6 10 -9 10 -9 2 0 -23 19 -23 41 -1 l21 23 -6 -25 c-3 -14 -3 -19 0 -12 3 6 13 12 21 12 9 0 13 6 10 14 -9 22 39 50 61 36 14 -9 14 -10 -5 -5 -23 6 -32 -8 -13 -20 20 -12 10 -26 -11 -14 -16 8 -20 8 -17 -1 2 -6 8 -12 13 -12 6 0 15 -4 20 -8 7 -6 11 -1 12 13 1 12 7 23 14 26 6 2 20 12 30 22 17 17 20 17 25 4 5 -11 11 -12 25 -4 14 7 19 6 19 -3 0 -10 2 -10 9 0 6 11 10 10 15 -4 6 -16 7 -16 20 2 12 15 16 16 30 5 8 -7 14 -16 13 -19 -1 -4 0 -7 3 -8 3 0 15 -6 28 -13 19 -10 26 -10 39 1 15 12 15 11 4 -10 -12 -22 -11 -23 8 -13 11 6 19 20 18 31 -2 23 -2 23 -29 9 -16 -9 -19 -8 -13 2 6 8 4 11 -7 7 -8 -4 -21 -2 -29 3 -12 8 -12 10 1 8 27 -3 41 1 36 9 -3 5 1 9 8 9 8 0 12 -5 10 -11 -2 -6 7 -12 21 -12 14 -1 25 2 25 7 0 5 4 9 9 9 13 0 22 -43 11 -54 -14 -14 -12 -23 6 -30 14 -5 15 -4 5 7 -16 20 13 45 32 28 8 -6 17 -7 21 -3 4 4 13 -1 21 -11 12 -17 13 -17 19 0 5 11 -1 23 -16 35 -19 14 -24 15 -26 3 -2 -8 -7 -15 -12 -15 -4 0 -6 9 -3 20 6 23 14 25 31 8 9 -9 15 -8 24 4 9 10 21 13 38 9 l24 -7 -22 -22 c-25 -25 -27 -37 -10 -48 6 -4 8 -3 5 2 -3 6 -2 16 4 24 6 10 9 11 9 3 0 -7 5 -13 11 -13 8 0 8 4 1 13 -7 8 -6 19 5 37 8 14 12 17 9 8 -3 -10 -1 -18 5 -18 6 0 7 -5 4 -10 -3 -5 0 -11 7 -11 7 -1 24 -3 37 -4 13 -1 27 -9 32 -16 7 -11 9 -10 9 4 0 9 -5 17 -11 17 -5 0 -7 5 -4 10 3 5 2 10 -4 10 -5 0 -13 -4 -16 -10 -9 -15 -25 -12 -19 4 6 14 44 30 44 17 0 -4 9 -7 20 -7 11 0 19 5 16 11 -2 7 2 12 9 12 7 0 11 -6 8 -13 -2 -6 1 -15 8 -20 7 -4 10 -3 5 4 -4 7 1 10 14 9 11 -1 20 -4 20 -8 0 -4 9 -5 21 -2 26 7 5 23 -22 18 -10 -2 -21 1 -25 6 -4 7 5 9 24 6 38 -6 54 -16 47 -28 -4 -5 -2 -9 4 -9 13 0 7 -30 -8 -39 -9 -6 -8 -10 5 -15 10 -4 15 -4 11 0 -4 4 -3 12 2 18 13 17 22 48 12 42 -5 -3 -12 1 -15 10 -9 22 -8 24 9 24 8 0 15 -5 15 -11 0 -8 5 -8 15 1 12 10 18 10 30 0 9 -7 15 -8 15 -2 0 5 15 12 34 14 26 3 32 0 28 -10 -4 -12 -1 -12 18 -2 12 7 20 8 16 2 -3 -5 2 -16 11 -23 14 -12 15 -11 9 6 -5 17 -1 21 20 23 15 1 23 -2 19 -8 -4 -6 -10 -8 -14 -6 -4 3 -8 -1 -8 -9 0 -11 8 -10 33 6 19 11 38 18 43 15 5 -4 12 0 14 6 4 10 6 9 6 -1 1 -11 4 -11 17 -1 12 11 15 11 12 0 -2 -10 6 -14 23 -14 20 1 25 -3 23 -20 -1 -12 -3 -24 -3 -29 -1 -4 -10 -2 -20 5 -11 7 -19 16 -18 21 1 6 -13 12 -30 14 -21 3 -33 0 -33 -8 0 -6 8 -9 20 -6 11 3 23 1 26 -4 3 -5 1 -9 -4 -9 -5 0 -9 -7 -9 -16 0 -14 2 -15 11 -2 13 17 39 12 29 -5 -3 -7 -2 -9 2 -4 5 4 17 -1 27 -10 15 -14 19 -14 16 -3 -2 10 4 14 17 13 18 -1 19 0 3 11 -15 11 -15 15 8 41 13 15 24 22 24 15 0 -10 3 -10 15 0 12 10 15 10 15 -4 0 -20 48 -22 56 -2 3 9 16 14 32 12 15 -1 33 2 40 7 17 14 15 -2 -4 -20 -12 -13 -18 -13 -24 -4 -5 9 -9 4 -14 -13 -4 -15 -11 -24 -17 -21 -7 5 -6 12 2 21 9 12 6 12 -17 -1 -16 -8 -37 -12 -47 -9 -10 3 -24 0 -32 -6 -12 -10 -15 -10 -15 0 0 8 -3 11 -6 7 -10 -9 10 -32 29 -33 9 -1 17 5 17 14 0 11 6 9 22 -9 14 -17 19 -19 15 -6 -5 12 -1 17 13 17 11 0 20 -5 20 -11 0 -5 -4 -7 -10 -4 -17 10 -11 -2 8 -16 9 -7 14 -10 10 -5 -4 5 -2 18 4 30 12 21 12 21 19 -4 l7 -25 1 27 c1 23 5 26 37 25 35 -1 59 17 47 36 -3 5 2 5 12 -1 13 -7 24 -7 36 1 9 5 24 7 34 4 15 -6 15 -9 -6 -26 -27 -22 -38 -19 -19 4 10 11 10 15 0 15 -6 0 -14 -9 -17 -20 -5 -19 -6 -19 -18 -4 -10 15 -12 14 -10 -7 2 -18 7 -23 21 -21 14 3 16 1 8 -8 -14 -14 -57 -4 -49 11 4 5 1 9 -4 9 -13 0 -14 -10 -3 -26 9 -14 64 -25 55 -11 -4 6 2 8 15 5 17 -5 20 -2 16 19 -3 18 -1 23 8 17 7 -4 10 -4 6 0 -8 10 30 48 42 41 5 -3 -4 -19 -20 -36 -16 -18 -26 -38 -23 -45 8 -20 23 -6 16 14 -5 14 -3 15 8 4 7 -6 18 -12 23 -12 6 0 2 7 -8 15 -18 14 -18 15 8 25 15 5 34 17 43 26 16 16 66 12 91 -9 9 -7 11 -5 7 9 -4 10 1 7 9 -7 18 -31 63 -34 58 -3 -2 14 -1 16 6 6 5 -8 8 -27 7 -43 -1 -16 2 -32 8 -36 6 -3 7 -1 3 5 -4 7 -3 12 1 12 5 0 7 15 5 34 -4 35 6 41 35 23 7 -4 21 -3 32 3 12 6 22 6 26 1 3 -5 -5 -12 -17 -14 -20 -4 -19 -4 5 -6 15 0 27 -6 27 -11 0 -6 -11 -8 -26 -4 -17 4 -29 2 -35 -7 -8 -11 -9 -10 -7 5 2 10 -2 21 -9 23 -8 3 -11 -3 -8 -18 6 -30 12 -34 32 -18 15 12 16 12 10 -3 -3 -10 -1 -20 5 -24 6 -4 8 -3 5 2 -3 6 -2 16 3 24 7 12 10 12 16 -3 3 -9 12 -17 20 -17 14 0 14 14 -2 68 -5 18 -3 21 10 16 9 -3 13 -11 9 -17 -4 -6 -1 -7 8 -1 8 4 26 9 42 9 20 1 27 -4 28 -20 1 -16 2 -17 6 -3 2 10 9 18 15 18 6 0 7 -8 3 -17 -14 -36 -13 -52 3 -65 15 -12 16 -11 3 5 -10 13 -10 17 -1 17 7 0 10 8 8 18 -3 10 1 27 9 38 14 19 14 19 29 0 8 -11 14 -15 14 -9 0 6 14 13 30 15 17 3 30 1 30 -4 0 -4 5 -8 11 -8 5 0 8 4 4 9 -3 6 4 9 15 8 24 -2 24 -2 5 -21 -12 -12 -21 -13 -40 -4 -19 8 -27 7 -40 -6 -9 -9 -14 -20 -11 -24 3 -5 -1 -9 -9 -9 -8 0 -14 3 -13 6 2 21 -4 31 -18 31 -14 0 -15 -2 -3 -17 8 -9 13 -18 12 -20 -2 -1 -3 -11 -3 -20 0 -15 2 -15 9 -4 8 12 14 13 35 3 26 -11 32 -7 27 21 -1 4 11 0 25 -10 30 -19 57 -26 48 -12 -3 5 0 9 6 9 6 0 9 4 6 9 -4 5 -1 11 6 13 8 3 6 7 -5 11 -10 4 -16 2 -14 -5 1 -5 -6 -12 -15 -13 -24 -4 -23 12 2 25 11 6 20 7 20 3 0 -4 5 -2 12 5 7 7 19 12 27 12 12 0 12 -3 3 -12 -19 -19 -14 -29 7 -16 11 7 17 16 15 20 -3 4 0 8 5 8 11 0 15 -13 12 -38 -1 -6 2 -12 7 -12 5 0 8 13 7 30 -1 16 1 30 6 30 5 0 9 -8 9 -17 0 -15 2 -16 10 -3 7 11 10 11 10 2 0 -7 10 -17 23 -22 20 -8 21 -9 2 -11 -11 -1 -26 -1 -32 0 -18 3 -16 -16 2 -23 8 -3 15 -1 15 4 0 5 18 8 40 6 22 -2 40 0 40 5 0 5 -6 9 -12 9 -10 0 -10 2 0 9 10 6 10 10 -2 20 -11 9 -15 9 -19 -1 -4 -11 -6 -11 -6 0 -1 10 -6 10 -21 2 -16 -8 -20 -8 -20 4 0 10 6 13 17 9 10 -4 14 -2 10 4 -4 7 0 10 10 8 10 -2 26 -4 37 -4 14 -1 17 -7 14 -26 -3 -16 1 -30 11 -37 14 -11 14 -11 3 4 -8 10 -9 19 -3 22 5 4 12 2 16 -4 3 -5 17 -10 31 -10 13 0 24 -4 24 -9 0 -5 8 -8 18 -6 9 1 22 0 27 -4 24 -14 38 -9 17 7 -22 17 -22 17 -2 35 17 14 20 15 20 2 0 -9 7 -18 16 -22 13 -5 13 -7 2 -14 -9 -6 -9 -9 -1 -9 7 0 17 9 23 19 9 17 7 19 -10 16 -25 -5 -27 11 -2 17 30 8 37 8 37 0 0 -4 10 -23 22 -42 13 -19 23 -30 23 -24 0 11 28 12 46 1 11 -6 14 6 16 58 1 17 3 25 5 19 2 -7 13 -10 24 -7 11 3 19 2 17 -3 -2 -5 2 -9 7 -9 6 0 9 3 8 7 -2 4 8 7 22 6 26 -2 29 -22 4 -24 -8 0 -30 -8 -49 -18 -33 -16 -16 -17 24 -1 15 7 17 5 11 -14 -7 -22 -6 -22 15 -4 12 10 26 28 31 41 5 12 16 22 24 22 9 0 13 -5 10 -10 -4 -6 -10 -8 -15 -5 -11 7 -7 -22 5 -32 4 -4 5 -2 0 6 -6 11 -2 13 19 7 14 -3 26 -2 26 3 0 11 19 9 38 -3 7 -4 16 -5 19 -2 4 3 2 6 -3 6 -5 0 -9 11 -9 25 0 23 3 24 37 20 22 -3 40 0 44 7 5 8 10 5 15 -8 6 -16 8 -14 8 9 1 16 5 26 10 23 5 -4 11 0 14 6 3 10 7 10 17 1 15 -14 4 -34 -15 -26 -8 3 -15 1 -15 -5 0 -5 9 -12 20 -15 13 -3 20 0 20 8 0 8 8 12 20 10 11 -2 20 0 20 6 0 5 -7 9 -15 9 -21 0 -19 13 6 41 11 13 18 18 14 12 -3 -7 0 -13 7 -13 7 -1 2 -7 -12 -15 -29 -17 -22 -19 14 -5 18 7 25 6 23 -2 -1 -6 4 -13 12 -16 8 -3 11 0 7 7 -4 6 -2 11 3 11 6 0 10 3 9 8 -3 17 15 40 28 35 8 -3 14 0 14 7 0 6 -4 8 -10 5 -5 -3 -10 1 -10 9 0 9 5 16 11 16 8 0 8 5 -1 15 -7 8 -9 15 -5 15 4 0 2 7 -5 15 -7 8 -18 15 -24 15 -6 0 -4 -5 4 -10 8 -5 11 -10 6 -10 -5 0 -3 -6 3 -14 9 -10 9 -16 1 -21 -13 -8 -21 -3 -24 17 -1 7 -5 19 -9 26 -5 7 -2 15 10 19 10 4 32 15 48 25 l30 19 -30 -5 c-16 -3 -31 -10 -33 -16 -2 -5 -8 -10 -13 -10 -6 0 -7 6 -4 13 4 6 -1 3 -9 -7 -9 -11 -16 -26 -16 -33 0 -7 -5 -13 -11 -13 -5 0 -7 5 -4 11 10 15 -44 5 -83 -15 -48 -25 -63 -18 -16 7 61 33 78 47 110 96 26 40 29 53 29 125 0 66 -5 90 -24 126 -28 52 -581 792 -1096 1465 -109 143 -248 325 -309 405 -60 80 -142 186 -181 235 -119 150 -232 295 -495 635 -598 774 -580 751 -659 791 -57 29 -156 35 -222 14z m217 -34 c70 -33 70 -33 326 -363 100 -130 226 -292 278 -359 52 -67 142 -183 200 -258 58 -76 142 -184 187 -242 162 -205 319 -407 487 -628 94 -123 189 -247 210 -275 22 -28 123 -161 225 -296 101 -135 219 -290 261 -345 68 -89 210 -278 454 -605 106 -142 129 -193 124 -275 -5 -86 -43 -147 -118 -189 l-55 -31 -3970 0 -3970 0 -53 29 c-116 64 -153 196 -91 318 12 23 82 118 157 212 75 94 152 192 172 217 19 25 139 177 265 338 127 162 282 360 345 441 63 81 162 207 218 279 57 73 127 162 155 199 72 94 452 576 601 762 69 85 214 270 323 410 175 224 206 258 253 284 43 24 65 29 120 29 120 0 130 -8 452 -396 156 -187 371 -444 478 -571 107 -127 226 -268 264 -314 38 -45 74 -82 80 -82 6 0 21 17 34 38 12 20 39 58 60 83 57 71 242 304 292 369 25 32 140 179 256 327 116 147 255 326 310 397 361 468 376 485 459 514 60 21 145 14 211 -17z m2778 -3936 c-15 -23 -34 -34 -34 -19 0 16 23 44 36 44 12 0 12 -4 -2 -25z m-6959 -91 c-13 -9 -13 -13 -3 -17 9 -4 7 -6 -4 -6 -9 -1 -20 4 -23 9 -3 6 -14 10 -23 9 -14 0 -13 -2 3 -9 14 -6 15 -9 5 -9 -15 -1 -40 17 -40 29 0 3 23 5 50 5 40 0 47 -2 35 -11z m448 0 c-5 -13 -1 -15 18 -10 l24 6 -23 -12 c-19 -9 -25 -9 -32 2 -6 9 -4 17 3 22 17 11 17 10 10 -8z m194 2 c-10 -8 -17 -16 -15 -19 2 -3 1 -8 -2 -11 -3 -3 -6 3 -7 14 -1 16 9 24 37 29 3 0 -3 -6 -13 -13z m73 -8 c-16 -6 -26 -5 -32 4 -4 7 -8 8 -8 3 0 -6 5 -16 11 -22 12 -12 3 -36 -11 -28 -7 4 -8 56 -1 61 0 0 15 -2 33 -4 31 -5 32 -5 8 -14z m165 13 c5 -1 -1 -8 -13 -17 -12 -8 -26 -13 -32 -9 -15 9 0 33 18 30 9 -2 21 -4 27 -4z m648 -22 c-12 -12 -33 -4 -33 13 0 6 6 6 15 -2 13 -11 14 -10 9 6 -6 16 -5 17 7 7 9 -10 10 -16 2 -24z m407 19 c0 -6 3 -8 7 -5 3 4 12 2 20 -4 7 -6 13 -7 13 -2 0 5 8 9 18 9 10 0 19 -6 19 -13 0 -7 -3 -11 -5 -8 -3 3 -13 -2 -22 -10 -15 -14 -25 -14 -66 -4 -41 11 -44 13 -26 20 12 5 22 13 22 19 0 5 5 10 10 10 6 0 10 -5 10 -12z m3170 -3 c0 -8 -9 -15 -20 -15 -13 0 -18 5 -14 15 4 8 12 15 20 15 8 0 14 -7 14 -15z m-5898 -28 c-5 -20 -6 -20 -13 -1 -11 29 -10 34 5 28 8 -3 12 -13 8 -27z m93 22 c4 -6 5 -12 2 -15 -7 -7 -37 7 -37 17 0 13 27 11 35 -2z m220 1 c-3 -6 4 -10 17 -10 18 0 20 2 8 10 -13 8 -12 10 3 10 21 0 22 -16 3 -36 -16 -16 -30 -19 -22 -5 3 5 -1 12 -9 15 -10 4 -19 -2 -25 -17 -5 -12 -9 -16 -9 -9 -1 8 -11 11 -31 7 -22 -4 -30 -1 -30 9 0 10 14 17 38 21 20 4 42 8 47 10 6 2 11 4 13 4 2 1 0 -3 -3 -9z m895 0 c0 -5 -4 -10 -10 -10 -5 0 -19 -9 -29 -19 -17 -17 -21 -18 -32 -5 -8 10 -8 14 0 15 6 1 15 2 21 3 5 0 15 7 22 14 15 15 28 16 28 2z m956 -12 c10 -13 15 -20 10 -16 -5 4 -16 2 -24 -5 -13 -10 -15 -9 -10 11 5 19 4 21 -8 11 -12 -10 -13 -9 -8 5 8 22 17 20 40 -6z m293 6 c-5 -6 -6 -14 -2 -17 3 -4 12 1 20 11 12 15 12 14 5 -7 -5 -14 -15 -27 -22 -29 -7 -3 -10 0 -6 6 4 6 -2 17 -14 24 -26 17 -25 23 4 23 16 0 21 -4 15 -11z m656 -2 c8 -23 0 -24 -18 -4 -14 15 -15 19 -2 19 8 0 17 -7 20 -15z m86 1 c1 -17 2 -17 6 0 6 25 18 21 21 -7 1 -19 -3 -23 -22 -23 -18 0 -23 4 -19 15 4 9 2 13 -4 9 -5 -3 -10 0 -10 8 0 21 27 19 28 -2z m203 2 c43 -18 48 -28 7 -14 -21 7 -36 7 -53 -1 -20 -10 -21 -10 -6 3 10 8 15 17 11 20 -10 11 2 8 41 -8z m66 3 c0 -14 -18 -17 -28 -5 -8 10 -6 13 9 13 10 0 19 -4 19 -8z m256 -15 c-3 -3 -1 -14 5 -25 9 -17 8 -18 -9 -9 -11 6 -23 6 -28 1 -5 -5 -10 0 -10 14 -1 19 2 23 20 19 21 -5 21 -5 1 11 -20 17 -19 17 3 6 13 -7 21 -14 18 -17z m58 7 c5 -1 13 4 18 12 7 9 8 7 3 -7 -4 -11 -8 -25 -9 -32 -4 -24 -14 -23 -20 2 -4 14 -13 25 -21 25 -8 0 -15 5 -15 10 0 7 6 7 18 1 9 -5 21 -10 26 -11z m339 12 c3 7 6 -3 6 -22 1 -36 -3 -34 -31 15 -10 18 -9 18 4 7 13 -10 17 -10 21 0z m-3988 -12 c-3 -5 -10 -10 -16 -10 -5 0 -9 5 -9 10 0 6 7 10 16 10 8 0 12 -4 9 -10z m1575 -5 c10 -12 10 -15 -2 -15 -8 0 -15 7 -15 15 0 8 1 15 2 15 2 0 8 -7 15 -15z m2297 -9 c1 -12 -1 -16 -4 -9 -2 7 -10 11 -16 9 -7 -1 -9 -1 -4 1 4 3 5 8 3 12 -3 4 1 8 7 8 7 0 13 -10 14 -21z m3058 13 c4 -5 -3 -9 -13 -9 -14 0 -19 -6 -17 -17 1 -10 0 -12 -2 -5 -3 7 -8 10 -13 7 -4 -3 -6 3 -3 13 5 19 39 27 48 11z m421 -1 c5 -7 2 -8 -5 -4 -7 5 -21 0 -32 -10 -16 -14 -19 -14 -19 -2 0 8 2 17 5 19 9 10 45 7 51 -3z m-7422 -8 c14 -5 26 -15 26 -22 0 -10 -3 -9 -9 1 -5 8 -16 11 -25 8 -8 -3 -18 -2 -21 4 -4 5 -11 6 -17 3 -7 -4 -8 -2 -4 4 9 15 17 15 50 2z m1027 -23 c-8 -8 -11 -7 -11 4 0 20 13 34 18 19 3 -7 -1 -17 -7 -23z m1842 7 c-4 -12 -8 -13 -14 -3 -9 15 -2 32 11 24 5 -3 6 -13 3 -21z m397 17 c0 -5 -7 -11 -14 -14 -10 -4 -13 -1 -9 9 6 15 23 19 23 5z m3661 2 c-11 -5 -11 -7 0 -14 10 -6 7 -9 -10 -9 -20 0 -21 2 -11 15 7 8 18 15 24 14 6 0 5 -3 -3 -6z m204 -2 c-3 -5 -1 -12 5 -16 6 -3 13 0 16 8 8 23 32 16 30 -10 -1 -20 -3 -21 -12 -8 -10 14 -12 14 -17 1 -3 -8 -1 -17 6 -19 7 -3 2 -4 -10 -4 -12 1 -20 3 -18 5 2 3 -3 11 -11 20 -13 12 -13 16 -2 23 17 11 20 11 13 0z m-5965 -11 c8 -5 12 -11 10 -14 -3 -2 -14 2 -24 10 -22 15 -10 19 14 4z m5420 -11 c0 -5 -7 -6 -15 -3 -8 4 -17 -1 -21 -10 -7 -19 -25 -22 -21 -4 4 22 21 35 39 30 10 -2 18 -8 18 -13z"/><path d="M6440 5990 c-7 -14 -133 -184 -279 -379 -794 -1055 -1108 -1476 -1106 -1479 1 -2 34 18 71 45 76 52 722 537 824 618 75 59 101 75 127 75 13 0 53 -43 114 -121 52 -67 109 -139 127 -162 18 -22 47 -60 65 -84 l31 -44 21 43 c65 131 230 436 246 453 16 16 24 18 47 9 22 -9 335 -202 547 -339 252 -162 419 -264 424 -260 4 4 -141 200 -323 435 -70 91 -153 198 -184 239 -31 41 -91 118 -133 170 -128 164 -561 736 -590 781 l-16 24 -13 -24z m106 -135 c33 -44 138 -183 234 -310 96 -126 199 -261 229 -300 31 -38 117 -149 191 -246 74 -97 180 -234 235 -305 164 -211 205 -267 201 -271 -5 -5 -19 4 -141 83 -212 137 -724 458 -752 472 -63 30 -67 25 -275 -375 -29 -57 -55 -103 -58 -102 -3 0 -59 70 -125 156 -158 206 -182 233 -211 233 -28 0 -72 -30 -256 -173 -73 -57 -167 -128 -208 -159 -41 -31 -165 -124 -275 -207 -110 -82 -201 -148 -203 -146 -3 2 188 260 423 572 235 312 534 710 664 884 227 305 237 316 251 295 8 -11 42 -57 76 -101z"/><path d="M3462 5326 c-117 -155 -307 -407 -423 -561 -407 -539 -673 -904 -665 -913 9 -9 41 12 176 110 387 284 834 598 852 598 24 0 62 -40 196 -206 146 -181 119 -183 254 14 63 92 124 184 137 205 25 41 55 62 78 53 8 -3 61 -39 116 -79 105 -76 415 -289 429 -295 5 -2 8 2 8 9 0 6 16 31 35 55 l36 43 -113 143 c-61 79 -137 173 -168 209 -30 36 -131 160 -225 275 -93 115 -212 258 -264 319 -52 60 -129 153 -171 206 l-77 96 -211 -281z m529 -132 c73 -89 220 -266 324 -395 105 -129 217 -267 250 -307 33 -40 70 -88 83 -105 l22 -31 -24 -23 c-14 -13 -29 -30 -34 -39 -9 -16 -73 24 -407 258 -76 54 -147 98 -155 98 -25 0 -58 -41 -190 -237 -68 -101 -126 -183 -129 -183 -4 0 -69 74 -144 166 -76 91 -150 170 -163 176 -33 15 -48 7 -234 -127 -80 -58 -188 -135 -240 -172 -156 -110 -463 -334 -494 -360 -65 -54 -39 -10 119 202 45 61 128 173 185 250 57 77 122 165 145 195 23 30 94 125 159 210 64 85 122 162 129 170 31 39 378 500 425 566 l53 73 93 -112 c50 -61 153 -184 227 -273z"/><path d="M4345 2390 c7 -12 32 -13 39 -2 2 4 -7 9 -20 10 -15 1 -22 -2 -19 -8z"/><path d="M9424 2686 c-9 -20 -9 -23 2 -19 8 3 14 14 14 24 0 25 -3 24 -16 -5z"/><path d="M957 2633 c-4 -3 1 -12 9 -20 8 -8 12 -19 9 -24 -4 -5 -2 -9 4 -9 21 0 22 22 3 40 -11 10 -22 16 -25 13z"/><path d="M9405 2620 c-19 -8 -19 -9 3 -9 12 -1 22 4 22 9 0 6 -1 10 -2 9 -2 0 -12 -4 -23 -9z"/><path d="M9403 2578 c1 -10 4 -18 7 -18 3 0 10 8 16 18 9 15 8 18 -6 18 -12 0 -18 -7 -17 -18z"/><path d="M977 2520 c-4 -17 -3 -19 9 -9 8 6 15 8 15 3 1 -5 2 -13 4 -19 1 -5 3 -16 3 -23 2 -15 22 -6 22 9 0 6 -5 7 -12 3 -7 -4 -8 -3 -4 4 4 6 14 8 23 5 11 -4 14 -3 9 5 -4 7 -12 12 -18 12 -6 0 -19 7 -28 15 -16 14 -18 14 -23 -5z"/><path d="M6536 2405 c-3 -8 -1 -15 4 -15 13 0 22 18 11 24 -5 3 -11 -1 -15 -9z"/><path d="M7695 2402 c-11 -9 -21 -26 -23 -37 -2 -11 1 -16 5 -10 4 6 15 10 23 10 8 0 19 -4 23 -10 4 -5 5 4 1 20 -4 21 -3 26 4 16 11 -16 47 -7 37 9 -4 6 -10 8 -15 5 -5 -3 -11 -1 -15 5 -9 14 -17 12 -40 -8z"/><path d="M1781 2401 c-11 -7 -10 -11 4 -18 9 -5 16 -13 16 -16 -3 -24 0 -31 9 -17 5 9 5 19 0 26 -6 6 -7 13 -4 16 10 10 -11 17 -25 9z"/><path d="M2160 2386 c0 -14 5 -26 11 -26 5 0 7 5 4 10 -3 6 -1 10 4 10 6 0 11 -4 11 -10 0 -5 10 -10 23 -9 21 0 21 1 2 9 -11 5 -15 9 -10 10 6 1 18 3 27 5 9 2 19 -3 22 -11 3 -8 10 -14 16 -14 6 0 8 5 4 11 -3 6 0 15 7 20 10 6 11 9 2 10 -7 1 -19 2 -25 3 -7 1 -25 -4 -40 -11 -23 -11 -29 -11 -42 3 -15 14 -16 13 -16 -10z"/><path d="M2939 2391 c-11 -12 -8 -13 17 -7 27 7 28 6 9 -8 -24 -17 -17 -25 33 -42 37 -13 37 -13 -15 24 -11 8 -13 11 -3 9 10 -3 15 3 16 18 1 18 -3 22 -21 21 -12 0 -28 -7 -36 -15z"/><path d="M5176 2401 c-4 -5 -2 -12 3 -15 5 -4 12 -2 15 3 4 5 2 12 -3 15 -5 4 -12 2 -15 -3z"/><path d="M5844 2398 c4 -14 -1 -18 -22 -19 -17 -1 -20 -3 -9 -6 9 -2 17 -8 17 -12 0 -5 11 -6 25 -3 17 3 25 0 25 -9 1 -10 4 -8 11 4 5 9 16 17 24 17 9 0 12 6 9 15 -4 8 -11 15 -17 15 -6 0 -7 -3 -4 -7 10 -9 -13 -34 -25 -27 -5 3 -4 12 3 20 10 12 9 13 -6 8 -10 -4 -21 -1 -27 7 -8 11 -9 10 -4 -3z"/><path d="M6141 2398 c-1 -10 -5 -18 -9 -18 -5 0 -9 -7 -9 -15 0 -8 4 -15 9 -15 4 0 8 7 8 16 0 13 3 14 15 4 8 -6 20 -10 27 -7 9 4 8 6 -3 6 -9 1 -21 11 -27 24 -8 17 -11 18 -11 5z"/><path d="M7096 2392 c-4 -12 -13 -19 -20 -16 -7 3 -16 -2 -20 -11 -3 -9 -10 -13 -16 -10 -5 3 -10 1 -10 -4 0 -18 39 -12 60 9 l20 20 1 -22 c1 -19 2 -19 6 -5 3 12 10 16 21 12 15 -5 15 -4 2 7 -8 7 -19 19 -26 27 -10 13 -13 11 -18 -7z"/><path d="M8046 2399 c3 -5 -1 -9 -9 -9 -7 0 -14 -6 -14 -13 0 -8 6 -14 13 -14 7 0 11 4 8 9 -3 4 0 9 5 9 26 3 30 4 36 10 3 4 -5 9 -19 11 -14 3 -23 1 -20 -3z"/><path d="M1380 2390 c0 -5 -7 -7 -15 -4 -8 4 -15 2 -15 -4 0 -5 7 -12 15 -16 8 -3 15 -1 15 4 0 5 8 10 18 12 16 3 16 4 0 10 -10 4 -18 3 -18 -2z"/><path d="M4186 2383 c-7 -18 12 -35 28 -26 6 4 5 8 -2 11 -7 2 -12 8 -12 13 0 6 5 7 12 3 7 -4 8 -3 4 4 -10 17 -23 15 -30 -5z"/><path d="M6180 2389 c0 -5 5 -7 10 -4 6 3 10 1 10 -5 0 -6 5 -8 10 -5 6 3 10 1 10 -4 0 -6 7 -11 15 -11 8 0 15 5 15 11 0 5 -4 8 -9 5 -5 -4 -11 -1 -13 6 -5 14 -48 21 -48 7z"/><path d="M6257 2380 c3 -11 7 -20 8 -20 1 0 5 9 8 20 3 12 0 20 -8 20 -8 0 -11 -8 -8 -20z"/><path d="M6700 2392 c0 -10 12 -25 33 -41 16 -13 17 -12 8 11 -5 14 -8 28 -6 30 2 2 -5 4 -15 5 -11 1 -20 -1 -20 -5z"/><path d="M6920 2386 c0 -9 7 -12 19 -9 10 3 22 -1 27 -8 5 -8 3 -11 -8 -7 -8 4 -21 2 -29 -3 -9 -6 1 -7 29 -4 26 3 41 2 38 -4 -4 -5 -1 -13 6 -17 7 -4 10 -4 6 1 -4 4 -3 16 3 26 8 16 6 19 -11 19 -11 0 -20 6 -20 13 0 9 -2 9 -8 0 -5 -8 -13 -9 -22 -3 -21 14 -30 12 -30 -4z"/><path d="M3476 2382 c-3 -5 -17 -8 -31 -7 -14 2 -23 0 -20 -5 3 -5 23 -7 46 -5 28 2 42 -1 46 -11 3 -8 15 -14 27 -14 20 1 20 2 -4 14 -14 8 -29 14 -34 14 -5 0 -12 6 -16 12 -5 7 -10 8 -14 2z"/><path d="M6756 2381 c-3 -4 -1 -13 5 -21 5 -8 9 -10 9 -4 0 6 8 11 18 11 31 0 42 3 42 11 0 10 -68 13 -74 3z"/><path d="M7802 2370 c7 -10 14 -18 15 -16 6 6 -9 36 -18 36 -5 0 -4 -9 3 -20z"/><path d="M1320 2366 c0 -7 9 -16 20 -19 17 -4 18 -2 9 14 -11 22 -29 25 -29 5z"/><path d="M2900 2370 c13 -9 7 -14 -12 -11 -5 0 -8 -3 -8 -9 0 -16 27 -11 34 6 9 23 8 24 -11 24 -15 0 -16 -2 -3 -10z"/><path d="M3148 2371 c-13 -4 -15 -10 -8 -21 6 -9 10 -10 10 -3 0 6 8 13 18 15 9 2 13 6 7 9 -5 4 -18 4 -27 0z"/><path d="M4000 2370 c0 -5 10 -10 23 -10 18 0 19 2 7 10 -19 13 -30 13 -30 0z"/><path d="M4750 2363 c0 -13 5 -23 10 -23 13 0 13 11 0 30 -8 12 -10 11 -10 -7z"/><path d="M5545 2370 c-3 -5 0 -10 7 -10 11 0 10 -2 0 -9 -11 -7 -10 -9 3 -14 9 -4 14 -3 10 2 -3 5 0 11 6 13 7 2 6 8 -4 16 -10 9 -17 10 -22 2z"/><path d="M6397 2360 c-3 -11 -2 -20 3 -20 12 0 21 28 11 35 -5 2 -11 -4 -14 -15z"/><path d="M8371 2371 c-7 -5 -11 -15 -9 -22 3 -10 8 -7 17 9 13 24 12 26 -8 13z"/><path d="M1764 2353 c2 -10 7 -17 12 -15 13 3 11 25 -3 29 -6 2 -10 -4 -9 -14z"/><path d="M2243 2360 c2 -8 12 -16 23 -17 13 -2 15 -1 4 4 -8 3 -19 11 -23 17 -6 7 -7 6 -4 -4z"/><path d="M2777 2345 c-14 -10 -15 -14 -3 -18 8 -3 17 1 20 10 9 22 4 24 -17 8z"/><path d="M5786 2351 c-3 -5 0 -11 8 -14 15 -6 26 1 26 15 0 11 -27 10 -34 -1z"/></g></svg>